<?xml version="1.0" standalone="no"?>
<svg xmlns:xlink="http://www.w3.org/1999/xlink" id="wave" style="transform:rotate(0deg); transition: 0.3s" viewBox="0 0 1440 490" version="1.1" xmlns="http://www.w3.org/2000/svg"><defs><linearGradient id="sw-gradient-0" x1="0" x2="0" y1="1" y2="0"><stop stop-color="rgba(243, 106, 62, 1)" offset="0%"/><stop stop-color="rgba(255, 179, 11, 1)" offset="100%"/></linearGradient></defs><path style="transform:translate(0, 0px); opacity:1" fill="url(#sw-gradient-0)" d="M0,98L48,138.8C96,180,192,261,288,269.5C384,278,480,212,576,204.2C672,196,768,245,864,220.5C960,196,1056,98,1152,81.7C1248,65,1344,131,1440,204.2C1536,278,1632,359,1728,343C1824,327,1920,212,2016,212.3C2112,212,2208,327,2304,351.2C2400,376,2496,310,2592,236.8C2688,163,2784,82,2880,40.8C2976,0,3072,0,3168,0C3264,0,3360,0,3456,57.2C3552,114,3648,229,3744,236.8C3840,245,3936,147,4032,138.8C4128,131,4224,212,4320,277.7C4416,343,4512,392,4608,359.3C4704,327,4800,212,4896,204.2C4992,196,5088,294,5184,343C5280,392,5376,392,5472,375.7C5568,359,5664,327,5760,277.7C5856,229,5952,163,6048,179.7C6144,196,6240,294,6336,294C6432,294,6528,196,6624,196C6720,196,6816,294,6864,343L6912,392L6912,490L6864,490C6816,490,6720,490,6624,490C6528,490,6432,490,6336,490C6240,490,6144,490,6048,490C5952,490,5856,490,5760,490C5664,490,5568,490,5472,490C5376,490,5280,490,5184,490C5088,490,4992,490,4896,490C4800,490,4704,490,4608,490C4512,490,4416,490,4320,490C4224,490,4128,490,4032,490C3936,490,3840,490,3744,490C3648,490,3552,490,3456,490C3360,490,3264,490,3168,490C3072,490,2976,490,2880,490C2784,490,2688,490,2592,490C2496,490,2400,490,2304,490C2208,490,2112,490,2016,490C1920,490,1824,490,1728,490C1632,490,1536,490,1440,490C1344,490,1248,490,1152,490C1056,490,960,490,864,490C768,490,672,490,576,490C480,490,384,490,288,490C192,490,96,490,48,490L0,490Z"/></svg>